<svg xmlns="http://www.w3.org/2000/svg" width="33" height="33" viewBox="0 0 33 33"><path fill="#14191E" d="M18 7.5v-6c0-.8-.7-1.5-1.5-1.5S15 .7 15 1.5v6c0 .8.7 1.5 1.5 1.5S18 8.3 18 7.5z"/><path opacity=".4" fill="#14191E" d="M18 31.5v-6c0-.8-.7-1.5-1.5-1.5s-1.5.7-1.5 1.5v6c0 .8.7 1.5 1.5 1.5s1.5-.7 1.5-1.5z"/><path opacity=".25" fill="#14191E" d="M13.3 8l-3-5.2c-.4-.8-1.3-1-2-.6s-1 1.3-.5 2l3 5.2c.4.7 1.3 1 2 .5.7-.3.9-1.2.5-1.9z"/><path opacity=".5" fill="#14191E" d="M25.3 28.7l-3-5.2c-.4-.7-1.3-1-2-.5-.7.4-1 1.3-.5 2l3 5.2c.4.7 1.3 1 2 .5.7-.3.9-1.2.5-2z"/><path opacity=".25" fill="#14191E" d="M9.5 10.7l-5.2-3c-.7-.4-1.6-.2-2 .5-.5.8-.3 1.7.5 2.1l5.2 3c.7.4 1.6.2 2-.5.4-.8.2-1.7-.5-2.1z"/><path opacity=".6" fill="#14191E" d="M30.2 22.7l-5.2-3c-.7-.4-1.6-.2-2 .5-.4.7-.2 1.6.5 2l5.2 3c.7.4 1.6.2 2-.5.5-.7.3-1.6-.5-2z"/><path opacity=".25" fill="#14191E" d="M7.5 15h-6c-.8 0-1.5.7-1.5 1.5S.7 18 1.5 18h6c.8 0 1.5-.7 1.5-1.5S8.3 15 7.5 15z"/><path opacity=".7" fill="#14191E" d="M31.5 15h-6c-.8 0-1.5.7-1.5 1.5s.7 1.5 1.5 1.5h6c.8 0 1.5-.7 1.5-1.5s-.7-1.5-1.5-1.5z"/><path opacity=".25" fill="#14191E" d="M8 19.7l-5.2 3c-.7.4-1 1.3-.5 2 .4.7 1.3 1 2 .5l5.2-3c.7-.4 1-1.3.5-2-.4-.7-1.3-.9-2-.5z"/><path opacity=".8" fill="#14191E" d="M28.7 7.7l-5.2 3c-.7.4-1 1.3-.5 2 .4.7 1.3 1 2 .5l5.2-3c.7-.4 1-1.3.5-2-.3-.7-1.2-.9-2-.5z"/><path opacity=".3" fill="#14191E" d="M10.7 23.5l-3 5.2c-.4.7-.2 1.6.5 2 .7.4 1.6.2 2-.5l3-5.2c.4-.7.2-1.6-.5-2-.7-.4-1.6-.2-2 .5z"/><path opacity=".9" fill="#14191E" d="M22.7 2.8l-3 5.2c-.4.7-.2 1.6.5 2 .7.4 1.6.2 2-.5l3-5.2c.4-.7.2-1.6-.5-2-.7-.5-1.6-.3-2 .5z"/></svg>